<svg width="93" height="95" viewBox="0 0 93 95" fill="none" xmlns="http://www.w3.org/2000/svg">
<g clip-path="url(#clip0_114_541)">
<path d="M58.5025 63.3848L46.4246 65.8523L34.3467 63.3848V95L46.4246 82.8166L58.5025 95V63.3848Z" fill="#B51515"/>
<path d="M46.4245 82.8166L58.5024 95V63.3848L46.4245 65.8523L34.4976 63.3848" fill="#990808"/>
<path d="M75.5627 41.4854L81.2997 35.625L75.4117 29.6104L78.2802 21.8994L70.5806 18.8149V10.487H62.8809L59.7104 2.77597L52.1617 6.01461L46.4247 0L40.5367 6.01461L32.988 2.77597L29.9685 10.487H22.2689V18.8149L14.4182 22.0536L17.4377 29.7646L11.7007 35.625L17.4377 41.6396L14.5692 49.3507L22.2689 52.4351V61.3799H29.9685L33.139 68.7825L40.6877 65.3896L46.4247 71.0958L52.3127 65.0812L59.8614 68.6283L62.8809 61.2257H70.5806V52.1266L78.4312 48.888L75.5627 41.4854ZM49.4442 40.8685L48.0854 40.2516L47.4815 41.9481L46.4247 40.7143L45.2169 41.9481L44.764 40.4058L43.4052 41.0227V39.789H41.2916L41.8955 37.7841L40.2348 37.013L41.4426 35.625L40.2348 34.3912L41.7445 33.7743L41.1406 32.0779H43.4052V30.2273L44.764 30.8442L45.3679 29.1477L46.4247 30.5357L47.6325 29.3019L48.0854 30.8442L49.4442 30.2273V32.0779H51.5578L50.9539 33.6201L52.6146 34.237L51.4069 35.4708L52.6146 36.7045L51.1049 37.6299L51.7088 39.6347H49.4442V40.8685Z" fill="#6D6459"/>
<path d="M22.2686 52.1266V61.3799H29.9682L33.1387 68.7825L40.6874 65.3896L46.4244 71.0958L52.3124 65.0812L59.8611 68.6282L62.8806 61.2256H70.5802V52.1266L78.4309 48.888L75.4114 41.1769L81.1484 35.3165L75.4114 29.3019L78.2799 21.5909L70.5802 18.5065V10.487H63.0315M49.4439 40.8685L48.0851 40.2516L47.4812 41.948L46.4244 40.7143L45.2166 41.948L44.7637 40.4058L43.4049 41.0227V39.7889H41.2913L41.8952 37.7841L40.2345 37.013L41.4423 35.625L40.2345 34.3912L41.7442 33.7743L41.1403 32.0779H43.4049V30.2273L44.7637 30.8441L45.3676 29.1477L46.4244 30.5357L47.6322 29.3019L48.0851 30.8441L49.4439 30.2273V32.0779H51.5575L50.9536 33.6201L52.6143 34.237L51.4065 35.4708L52.6143 36.7045L51.1046 37.6299L51.7085 39.6347H49.4439V40.8685Z" fill="#776D63"/>
<path d="M46.4246 57.5243C58.2647 57.5243 67.863 47.7197 67.863 35.625C67.863 23.5303 58.2647 13.7256 46.4246 13.7256C34.5846 13.7256 24.9863 23.5303 24.9863 35.625C24.9863 47.7197 34.5846 57.5243 46.4246 57.5243Z" fill="#7D796C"/>
<path d="M61.673 20.0487C70.1276 28.6851 70.1276 42.5649 61.673 51.2013C53.2185 59.8377 39.6308 59.8377 31.1763 51.2013" fill="#948C7E"/>
<path d="M55.6016 45.9219V51H35.7578V46.7031L44.8984 37.0938C45.7057 36.1693 46.3568 35.3424 46.8516 34.6133C47.3464 33.8711 47.7044 33.2005 47.9258 32.6016C48.1602 32.0026 48.2773 31.4622 48.2773 30.9805C48.2773 30.1602 48.1536 29.4766 47.9062 28.9297C47.6719 28.3698 47.3203 27.9466 46.8516 27.6602C46.3958 27.3737 45.8294 27.2305 45.1523 27.2305C44.4753 27.2305 43.8828 27.4258 43.375 27.8164C42.8672 28.207 42.4701 28.7409 42.1836 29.418C41.9102 30.0951 41.7734 30.8568 41.7734 31.7031H35.1719C35.1719 29.9583 35.5951 28.3633 36.4414 26.918C37.3008 25.4727 38.4922 24.3203 40.0156 23.4609C41.5391 22.5885 43.3034 22.1523 45.3086 22.1523C47.4049 22.1523 49.1628 22.4779 50.582 23.1289C52.0013 23.7799 53.069 24.724 53.7852 25.9609C54.5143 27.1849 54.8789 28.6628 54.8789 30.3945C54.8789 31.3841 54.7227 32.3346 54.4102 33.2461C54.0977 34.1576 53.6484 35.0625 53.0625 35.9609C52.4766 36.8464 51.7604 37.7578 50.9141 38.6953C50.0807 39.6328 49.1302 40.6289 48.0625 41.6836L44.3906 45.9219H55.6016Z" fill="black"/>
</g>
<defs>
<clipPath id="clip0_114_541">
<rect width="93" height="95" fill="white"/>
</clipPath>
</defs>
</svg>
