<svg width="104" height="95" viewBox="0 0 104 95" fill="none" xmlns="http://www.w3.org/2000/svg">
<g clip-path="url(#clip0_114_548)">
<path d="M65.4222 63.3848L51.9157 65.8523L38.4092 63.3848V95L51.9157 82.8166L65.4222 95V63.3848Z" fill="#151BB5"/>
<path d="M51.9158 82.8166L65.4223 95V63.3848L51.9158 65.8523L38.5781 63.3848" fill="#0B0899"/>
<path d="M84.5001 41.4854L90.9156 35.625L84.3312 29.6104L87.539 21.8994L78.9286 18.8149V10.487H70.3182L66.7728 2.77597L58.3312 6.01461L51.9156 0L45.3312 6.01461L36.8897 2.77597L33.513 10.487H24.9027V18.8149L16.1234 22.0536L19.5001 29.7646L13.0845 35.625L19.5001 41.6396L16.2923 49.3507L24.9027 52.4351V61.3799H33.513L37.0585 68.7825L45.5001 65.3896L51.9156 71.0958L58.5001 65.0812L66.9416 68.6283L70.3182 61.2257H78.9286V52.1266L87.7078 48.888L84.5001 41.4854ZM55.2923 40.8685L53.7728 40.2516L53.0975 41.9481L51.9156 40.7143L50.565 41.9481L50.0585 40.4058L48.539 41.0227V39.789H46.1754L46.8507 37.7841L44.9936 37.013L46.3442 35.625L44.9936 34.3912L46.6819 33.7743L46.0065 32.0779H48.539V30.2273L50.0585 30.8442L50.7338 29.1477L51.9156 30.5357L53.2663 29.3019L53.7728 30.8442L55.2923 30.2273V32.0779H57.6559L56.9806 33.6201L58.8377 34.237L57.4871 35.4708L58.8377 36.7045L57.1494 37.6299L57.8247 39.6347H55.2923V40.8685Z" fill="#E5CF0A"/>
<path d="M24.9028 52.1266V61.3799H33.5132L37.0587 68.7825L45.5002 65.3896L51.9158 71.0958L58.5002 65.0812L66.9418 68.6282L70.3184 61.2256H78.9288V52.1266L87.708 48.888L84.3314 41.1769L90.747 35.3165L84.3314 29.3019L87.5392 21.5909L78.9288 18.5065V10.487H70.4872M55.2924 40.8685L53.773 40.2516L53.0976 41.948L51.9158 40.7143L50.5652 41.948L50.0587 40.4058L48.5392 41.0227V39.7889H46.1756L46.8509 37.7841L44.9937 37.013L46.3444 35.625L44.9937 34.3912L46.6821 33.7743L46.0067 32.0779H48.5392V30.2273L50.0587 30.8441L50.734 29.1477L51.9158 30.5357L53.2665 29.3019L53.773 30.8441L55.2924 30.2273V32.0779H57.6561L56.9808 33.6201L58.8379 34.237L57.4872 35.4708L58.8379 36.7045L57.1496 37.6299L57.8249 39.6347H55.2924V40.8685Z" fill="#D1BC00"/>
<path d="M51.9154 57.5243C65.1559 57.5243 75.8895 47.7197 75.8895 35.625C75.8895 23.5303 65.1559 13.7256 51.9154 13.7256C38.6749 13.7256 27.9414 23.5303 27.9414 35.625C27.9414 47.7197 38.6749 57.5243 51.9154 57.5243Z" fill="#EDFF1D"/>
<path d="M68.9677 20.0487C78.4222 28.6851 78.4222 42.5649 68.9677 51.2013C59.5131 59.8377 44.3183 59.8377 34.8638 51.2013" fill="#F4DD11"/>
<path d="M55.3281 22.5625V51H48.7461V29.9844L42.2617 31.8789V26.8789L54.7227 22.5625H55.3281Z" fill="black"/>
</g>
<defs>
<clipPath id="clip0_114_548">
<rect width="104" height="95" fill="white"/>
</clipPath>
</defs>
</svg>
