<svg width="104" height="95" viewBox="0 0 104 95" fill="none" xmlns="http://www.w3.org/2000/svg">
<g clip-path="url(#clip0_114_534)">
<path d="M65.4222 63.3848L51.9157 65.8523L38.4092 63.3848V95L51.9157 82.8166L65.4222 95V63.3848Z" fill="#34B515"/>
<path d="M51.9158 82.8166L65.4223 95V63.3848L51.9158 65.8523L38.5781 63.3848" fill="#329908"/>
<path d="M84.5001 41.4854L90.9156 35.625L84.3312 29.6104L87.539 21.8994L78.9286 18.8149V10.487H70.3182L66.7728 2.77597L58.3312 6.01461L51.9156 0L45.3312 6.01461L36.8897 2.77597L33.513 10.487H24.9027V18.8149L16.1234 22.0536L19.5001 29.7646L13.0845 35.625L19.5001 41.6396L16.2923 49.3507L24.9027 52.4351V61.3799H33.513L37.0585 68.7825L45.5001 65.3896L51.9156 71.0958L58.5001 65.0812L66.9416 68.6283L70.3182 61.2257H78.9286V52.1266L87.7078 48.888L84.5001 41.4854ZM55.2923 40.8685L53.7728 40.2516L53.0975 41.9481L51.9156 40.7143L50.565 41.9481L50.0585 40.4058L48.539 41.0227V39.789H46.1754L46.8507 37.7841L44.9936 37.013L46.3442 35.625L44.9936 34.3912L46.6819 33.7743L46.0065 32.0779H48.539V30.2273L50.0585 30.8442L50.7338 29.1477L51.9156 30.5357L53.2663 29.3019L53.7728 30.8442L55.2923 30.2273V32.0779H57.6559L56.9806 33.6201L58.8377 34.237L57.4871 35.4708L58.8377 36.7045L57.1494 37.6299L57.8247 39.6347H55.2923V40.8685Z" fill="#E57C0A"/>
<path d="M24.9028 52.1266V61.3799H33.5132L37.0587 68.7825L45.5002 65.3896L51.9158 71.0958L58.5002 65.0812L66.9418 68.6282L70.3184 61.2256H78.9288V52.1266L87.708 48.888L84.3314 41.1769L90.747 35.3165L84.3314 29.3019L87.5392 21.5909L78.9288 18.5065V10.487H70.4872M55.2924 40.8685L53.773 40.2516L53.0976 41.948L51.9158 40.7143L50.5652 41.948L50.0587 40.4058L48.5392 41.0227V39.7889H46.1756L46.8509 37.7841L44.9937 37.013L46.3444 35.625L44.9937 34.3912L46.6821 33.7743L46.0067 32.0779H48.5392V30.2273L50.0587 30.8441L50.734 29.1477L51.9158 30.5357L53.2665 29.3019L53.773 30.8441L55.2924 30.2273V32.0779H57.6561L56.9808 33.6201L58.8379 34.237L57.4872 35.4708L58.8379 36.7045L57.1496 37.6299L57.8249 39.6347H55.2924V40.8685Z" fill="#D16800"/>
<path d="M51.9154 57.5243C65.1559 57.5243 75.8895 47.7197 75.8895 35.625C75.8895 23.5303 65.1559 13.7256 51.9154 13.7256C38.6749 13.7256 27.9414 23.5303 27.9414 35.625C27.9414 47.7197 38.6749 57.5243 51.9154 57.5243Z" fill="#FFC41D"/>
<path d="M68.9677 20.0487C78.4222 28.6851 78.4222 42.5649 68.9677 51.2013C59.5131 59.8377 44.3183 59.8377 34.8638 51.2013" fill="#F4A211"/>
<path d="M47.7539 34.0273H50.957C51.7773 34.0273 52.4479 33.8841 52.9688 33.5977C53.5026 33.2982 53.8997 32.8815 54.1602 32.3477C54.4206 31.8008 54.5508 31.1562 54.5508 30.4141C54.5508 29.8411 54.4271 29.3138 54.1797 28.832C53.9453 28.3503 53.5807 27.9661 53.0859 27.6797C52.5911 27.3802 51.9596 27.2305 51.1914 27.2305C50.6706 27.2305 50.1628 27.3411 49.668 27.5625C49.1732 27.7708 48.763 28.0703 48.4375 28.4609C48.125 28.8516 47.9688 29.3268 47.9688 29.8867H41.3672C41.3672 28.2721 41.8099 26.8919 42.6953 25.7461C43.5938 24.5872 44.7721 23.7018 46.2305 23.0898C47.7018 22.4648 49.2839 22.1523 50.9766 22.1523C52.9948 22.1523 54.7656 22.4648 56.2891 23.0898C57.8125 23.7018 58.9974 24.6133 59.8438 25.8242C60.7031 27.0221 61.1328 28.5065 61.1328 30.2773C61.1328 31.2539 60.9049 32.1719 60.4492 33.0312C59.9935 33.8906 59.3555 34.6458 58.5352 35.2969C57.7148 35.9479 56.7513 36.4622 55.6445 36.8398C54.5508 37.2044 53.3529 37.3867 52.0508 37.3867H47.7539V34.0273ZM47.7539 38.9297V35.6484H52.0508C53.4701 35.6484 54.7656 35.8112 55.9375 36.1367C57.1094 36.4492 58.1185 36.918 58.9648 37.543C59.8112 38.168 60.4622 38.9427 60.918 39.8672C61.3737 40.7786 61.6016 41.8268 61.6016 43.0117C61.6016 44.3398 61.3346 45.5247 60.8008 46.5664C60.2669 47.6081 59.5182 48.487 58.5547 49.2031C57.5911 49.9193 56.4648 50.4661 55.1758 50.8438C53.8867 51.2083 52.487 51.3906 50.9766 51.3906C49.7917 51.3906 48.6068 51.2344 47.4219 50.9219C46.237 50.5964 45.1562 50.1016 44.1797 49.4375C43.2031 48.7604 42.4154 47.901 41.8164 46.8594C41.2305 45.8047 40.9375 44.5482 40.9375 43.0898H47.5391C47.5391 43.6888 47.7018 44.2357 48.0273 44.7305C48.3659 45.2122 48.8151 45.5964 49.375 45.8828C49.9349 46.1693 50.5404 46.3125 51.1914 46.3125C51.9987 46.3125 52.6823 46.1628 53.2422 45.8633C53.8151 45.5508 54.2513 45.1341 54.5508 44.6133C54.8503 44.0924 55 43.513 55 42.875C55 41.9115 54.8372 41.1432 54.5117 40.5703C54.1992 39.9974 53.737 39.5807 53.125 39.3203C52.526 39.0599 51.8034 38.9297 50.957 38.9297H47.7539Z" fill="black"/>
</g>
<defs>
<clipPath id="clip0_114_534">
<rect width="104" height="95" fill="white"/>
</clipPath>
</defs>
</svg>
